# xmcd
#
# Track frame offsets:
#	150
#	9867
#	24945
#	41921
#	51820
#	64345
#	78844
#	91472
#	105361
#	115952
#	125964
#	139262
#	152023
#	161344
#	173217
#	184080
#	197954
#	207524
#
# Disc length: 2922 seconds
#
# Revision: 1
# Processed by: cddbd v1.5.2PL0 Copyright (c) Steve Scherf et al.
# Submitted via: audiograbber 1.83.01
#
DISCID=f50b6812
DTITLE=Willie Nelson - The Country Collection
DYEAR=2005
DGENRE=Country
TTITLE0=Half of a Man
TTITLE1=Face of a Fighter
TTITLE2=I Let My Mind Wander
TTITLE3=I Dindn't Sleep a Wink
TTITLE4=The Shelter of Your Arms
TTITLE5=Will You Remember Mine
TTITLE6=Any Old Arms Won't Do
TTITLE7=Last Letter
TTITLE8=I Feel Sorry for Him
TTITLE9=Broken Promises
TTITLE10=You'll Always Have Someone
TTITLE11=I Just Don't Understand
TTITLE12=One Step Beyond
TTITLE13=I Hope So
TTITLE14=Go Away
TTITLE15=Home Is Where You're Happy
TTITLE16=Building Heartaches
TTITLE17=Touch Me
EXTD=
EXTT0=
EXTT1=
EXTT2=
EXTT3=
EXTT4=
EXTT5=
EXTT6=
EXTT7=
EXTT8=
EXTT9=
EXTT10=
EXTT11=
EXTT12=
EXTT13=
EXTT14=
EXTT15=
EXTT16=
EXTT17=
PLAYORDER=
